<svg width="956" height="162" viewBox="0 0 956 162" fill="none" xmlns="http://www.w3.org/2000/svg">
<g filter="url(#filter0_f)">
<rect x="43.2728" y="40" width="872.667" height="82" rx="10" fill="url(#paint0_linear)"/>
</g>
<rect x="49.6658" y="50.0566" width="859.88" height="62.6604" rx="10" fill="#2BD37E"/>
<path d="M412.57 78.9236C412.634 79.1796 412.666 79.4996 412.666 79.8836C412.666 80.2516 412.634 80.5716 412.57 80.8436C412.634 81.0996 412.666 81.4196 412.666 81.8036C412.666 82.1716 412.634 82.4916 412.57 82.7636H411.61C411.674 83.0196 411.706 83.3396 411.706 83.7236C411.706 84.0916 411.674 84.4116 411.61 84.6836H410.65C410.714 84.9396 410.746 85.2596 410.746 85.6436C410.746 86.0116 410.714 86.3316 410.65 86.6036H404.89C404.826 86.3316 404.794 86.0116 404.794 85.6436C404.794 85.2596 404.826 84.9396 404.89 84.6836C404.826 84.4116 404.794 84.0916 404.794 83.7236C404.794 83.3396 404.826 83.0196 404.89 82.7636C404.826 82.4916 404.794 82.1716 404.794 81.8036C404.794 81.4196 404.826 81.0996 404.89 80.8436C404.826 80.5716 404.794 80.2516 404.794 79.8836C404.794 79.4996 404.826 79.1796 404.89 78.9236C404.826 78.6516 404.794 78.3316 404.794 77.9636C404.794 77.5796 404.826 77.2596 404.89 77.0036C404.826 76.7316 404.794 76.4116 404.794 76.0436C404.794 75.6596 404.826 75.3396 404.89 75.0836C404.826 74.8116 404.794 74.4916 404.794 74.1236C404.794 73.7396 404.826 73.4196 404.89 73.1636H410.65C410.714 73.4196 410.746 73.7396 410.746 74.1236C410.746 74.4916 410.714 74.8116 410.65 75.0836H411.61C411.674 75.3396 411.706 75.6596 411.706 76.0436C411.706 76.4116 411.674 76.7316 411.61 77.0036H412.57C412.634 77.2596 412.666 77.5796 412.666 77.9636C412.666 78.3316 412.634 78.6516 412.57 78.9236ZM410.65 82.7636C410.586 82.4916 410.554 82.1716 410.554 81.8036C410.554 81.4196 410.586 81.0996 410.65 80.8436C410.586 80.5716 410.554 80.2516 410.554 79.8836C410.554 79.4996 410.586 79.1796 410.65 78.9236C410.586 78.6516 410.554 78.3316 410.554 77.9636C410.554 77.5796 410.586 77.2596 410.65 77.0036H409.69C409.626 76.7316 409.594 76.4116 409.594 76.0436C409.594 75.6596 409.626 75.3396 409.69 75.0836H406.81C406.874 75.3396 406.906 75.6596 406.906 76.0436C406.906 76.4116 406.874 76.7316 406.81 77.0036C406.874 77.2596 406.906 77.5796 406.906 77.9636C406.906 78.3316 406.874 78.6516 406.81 78.9236C406.874 79.1796 406.906 79.4996 406.906 79.8836C406.906 80.2516 406.874 80.5716 406.81 80.8436C406.874 81.0996 406.906 81.4196 406.906 81.8036C406.906 82.1716 406.874 82.4916 406.81 82.7636C406.874 83.0196 406.906 83.3396 406.906 83.7236C406.906 84.0916 406.874 84.4116 406.81 84.6836H409.69C409.626 84.4116 409.594 84.0916 409.594 83.7236C409.594 83.3396 409.626 83.0196 409.69 82.7636H410.65ZM422.275 81.8036C422.275 82.1716 422.243 82.4916 422.179 82.7636H421.459C421.523 83.0196 421.555 83.3396 421.555 83.7236C421.555 84.0916 421.523 84.4116 421.459 84.6836H420.259C420.323 84.9396 420.355 85.2596 420.355 85.6436C420.355 86.0116 420.323 86.3316 420.259 86.6036H416.419C416.355 86.3316 416.323 86.0116 416.323 85.6436C416.323 85.2596 416.355 84.9396 416.419 84.6836H415.219C415.155 84.4116 415.123 84.0916 415.123 83.7236C415.123 83.3396 415.155 83.0196 415.219 82.7636H414.499C414.435 82.4916 414.403 82.1716 414.403 81.8036C414.403 81.4196 414.435 81.0996 414.499 80.8436H415.219C415.155 80.5716 415.123 80.2516 415.123 79.8836C415.123 79.4996 415.155 79.1796 415.219 78.9236H416.419C416.355 78.6516 416.323 78.3316 416.323 77.9636C416.323 77.5796 416.355 77.2596 416.419 77.0036H420.259C420.323 77.2596 420.355 77.5796 420.355 77.9636C420.355 78.3316 420.323 78.6516 420.259 78.9236H421.459C421.523 79.1796 421.555 79.4996 421.555 79.8836C421.555 80.2516 421.523 80.5716 421.459 80.8436H422.179C422.243 81.0996 422.275 81.4196 422.275 81.8036ZM420.259 82.7636C420.195 82.4916 420.163 82.1716 420.163 81.8036C420.163 81.4196 420.195 81.0996 420.259 80.8436H419.539C419.475 80.5716 419.443 80.2516 419.443 79.8836C419.443 79.4996 419.475 79.1796 419.539 78.9236H417.139C417.203 79.1796 417.235 79.4996 417.235 79.8836C417.235 80.2516 417.203 80.5716 417.139 80.8436H416.419C416.483 81.0996 416.515 81.4196 416.515 81.8036C416.515 82.1716 416.483 82.4916 416.419 82.7636H417.139C417.203 83.0196 417.235 83.3396 417.235 83.7236C417.235 84.0916 417.203 84.4116 417.139 84.6836H419.539C419.475 84.4116 419.443 84.0916 419.443 83.7236C419.443 83.3396 419.475 83.0196 419.539 82.7636H420.259ZM431.884 77.9636C431.884 78.3316 431.852 78.6516 431.788 78.9236C431.852 79.1796 431.884 79.4996 431.884 79.8836C431.884 80.2516 431.852 80.5716 431.788 80.8436H431.068C431.132 81.0996 431.164 81.4196 431.164 81.8036C431.164 82.1716 431.132 82.4916 431.068 82.7636C431.132 83.0196 431.164 83.3396 431.164 83.7236C431.164 84.0916 431.132 84.4116 431.068 84.6836H430.588C430.652 84.9396 430.684 85.2596 430.684 85.6436C430.684 86.0116 430.652 86.3316 430.588 86.6036H429.148C429.084 86.3316 429.052 86.0116 429.052 85.6436C429.052 85.2596 429.084 84.9396 429.148 84.6836H428.668C428.604 84.4116 428.572 84.0916 428.572 83.7236C428.572 83.3396 428.604 83.0196 428.668 82.7636H427.228C427.292 83.0196 427.324 83.3396 427.324 83.7236C427.324 84.0916 427.292 84.4116 427.228 84.6836H426.748C426.812 84.9396 426.844 85.2596 426.844 85.6436C426.844 86.0116 426.812 86.3316 426.748 86.6036H425.308C425.244 86.3316 425.212 86.0116 425.212 85.6436C425.212 85.2596 425.244 84.9396 425.308 84.6836H424.828C424.764 84.4116 424.732 84.0916 424.732 83.7236C424.732 83.3396 424.764 83.0196 424.828 82.7636C424.764 82.4916 424.732 82.1716 424.732 81.8036C424.732 81.4196 424.764 81.0996 424.828 80.8436H424.108C424.044 80.5716 424.012 80.2516 424.012 79.8836C424.012 79.4996 424.044 79.1796 424.108 78.9236C424.044 78.6516 424.012 78.3316 424.012 77.9636C424.012 77.5796 424.044 77.2596 424.108 77.0036H426.028C426.092 77.2596 426.124 77.5796 426.124 77.9636C426.124 78.3316 426.092 78.6516 426.028 78.9236C426.092 79.1796 426.124 79.4996 426.124 79.8836C426.124 80.2516 426.092 80.5716 426.028 80.8436C426.092 81.0996 426.124 81.4196 426.124 81.8036C426.124 82.1716 426.092 82.4916 426.028 82.7636H426.748C426.684 82.4916 426.652 82.1716 426.652 81.8036C426.652 81.4196 426.684 81.0996 426.748 80.8436H427.228C427.164 80.5716 427.132 80.2516 427.132 79.8836C427.132 79.4996 427.164 79.1796 427.228 78.9236C427.164 78.6516 427.132 78.3316 427.132 77.9636C427.132 77.5796 427.164 77.2596 427.228 77.0036H428.668C428.732 77.2596 428.764 77.5796 428.764 77.9636C428.764 78.3316 428.732 78.6516 428.668 78.9236C428.732 79.1796 428.764 79.4996 428.764 79.8836C428.764 80.2516 428.732 80.5716 428.668 80.8436H429.148C429.212 81.0996 429.244 81.4196 429.244 81.8036C429.244 82.1716 429.212 82.4916 429.148 82.7636H429.868C429.804 82.4916 429.772 82.1716 429.772 81.8036C429.772 81.4196 429.804 81.0996 429.868 80.8436C429.804 80.5716 429.772 80.2516 429.772 79.8836C429.772 79.4996 429.804 79.1796 429.868 78.9236C429.804 78.6516 429.772 78.3316 429.772 77.9636C429.772 77.5796 429.804 77.2596 429.868 77.0036H431.788C431.852 77.2596 431.884 77.5796 431.884 77.9636ZM435.494 77.9636C435.494 78.3316 435.462 78.6516 435.398 78.9236H436.358C436.422 79.1796 436.454 79.4996 436.454 79.8836C436.454 80.2516 436.422 80.5716 436.358 80.8436H435.638C435.702 81.0996 435.734 81.4196 435.734 81.8036C435.734 82.1716 435.702 82.4916 435.638 82.7636C435.702 83.0196 435.734 83.3396 435.734 83.7236C435.734 84.0916 435.702 84.4116 435.638 84.6836C435.702 84.9396 435.734 85.2596 435.734 85.6436C435.734 86.0116 435.702 86.3316 435.638 86.6036H433.718C433.654 86.3316 433.622 86.0116 433.622 85.6436C433.622 85.2596 433.654 84.9396 433.718 84.6836C433.654 84.4116 433.622 84.0916 433.622 83.7236C433.622 83.3396 433.654 83.0196 433.718 82.7636C433.654 82.4916 433.622 82.1716 433.622 81.8036C433.622 81.4196 433.654 81.0996 433.718 80.8436C433.654 80.5716 433.622 80.2516 433.622 79.8836C433.622 79.4996 433.654 79.1796 433.718 78.9236C433.654 78.6516 433.622 78.3316 433.622 77.9636C433.622 77.5796 433.654 77.2596 433.718 77.0036H435.398C435.462 77.2596 435.494 77.5796 435.494 77.9636ZM441.398 80.8436C441.462 81.0996 441.494 81.4196 441.494 81.8036C441.494 82.1716 441.462 82.4916 441.398 82.7636C441.462 83.0196 441.494 83.3396 441.494 83.7236C441.494 84.0916 441.462 84.4116 441.398 84.6836C441.462 84.9396 441.494 85.2596 441.494 85.6436C441.494 86.0116 441.462 86.3316 441.398 86.6036H439.478C439.414 86.3316 439.382 86.0116 439.382 85.6436C439.382 85.2596 439.414 84.9396 439.478 84.6836C439.414 84.4116 439.382 84.0916 439.382 83.7236C439.382 83.3396 439.414 83.0196 439.478 82.7636C439.414 82.4916 439.382 82.1716 439.382 81.8036C439.382 81.4196 439.414 81.0996 439.478 80.8436C439.414 80.5716 439.382 80.2516 439.382 79.8836C439.382 79.4996 439.414 79.1796 439.478 78.9236H436.358C436.294 78.6516 436.262 78.3316 436.262 77.9636C436.262 77.5796 436.294 77.2596 436.358 77.0036H440.198C440.262 77.2596 440.294 77.5796 440.294 77.9636C440.294 78.3316 440.262 78.6516 440.198 78.9236H441.398C441.462 79.1796 441.494 79.4996 441.494 79.8836C441.494 80.2516 441.462 80.5716 441.398 80.8436ZM450.047 84.6836C450.111 84.9396 450.143 85.2596 450.143 85.6436C450.143 86.0116 450.111 86.3316 450.047 86.6036H444.287C444.223 86.3316 444.191 86.0116 444.191 85.6436C444.191 85.2596 444.223 84.9396 444.287 84.6836H446.207C446.143 84.4116 446.111 84.0916 446.111 83.7236C446.111 83.3396 446.143 83.0196 446.207 82.7636C446.143 82.4916 446.111 82.1716 446.111 81.8036C446.111 81.4196 446.143 81.0996 446.207 80.8436C446.143 80.5716 446.111 80.2516 446.111 79.8836C446.111 79.4996 446.143 79.1796 446.207 78.9236C446.143 78.6516 446.111 78.3316 446.111 77.9636C446.111 77.5796 446.143 77.2596 446.207 77.0036C446.143 76.7316 446.111 76.4116 446.111 76.0436C446.111 75.6596 446.143 75.3396 446.207 75.0836H444.767C444.703 74.8116 444.671 74.4916 444.671 74.1236C444.671 73.7396 444.703 73.4196 444.767 73.1636H448.127C448.191 73.4196 448.223 73.7396 448.223 74.1236C448.223 74.4916 448.191 74.8116 448.127 75.0836C448.191 75.3396 448.223 75.6596 448.223 76.0436C448.223 76.4116 448.191 76.7316 448.127 77.0036C448.191 77.2596 448.223 77.5796 448.223 77.9636C448.223 78.3316 448.191 78.6516 448.127 78.9236C448.191 79.1796 448.223 79.4996 448.223 79.8836C448.223 80.2516 448.191 80.5716 448.127 80.8436C448.191 81.0996 448.223 81.4196 448.223 81.8036C448.223 82.1716 448.191 82.4916 448.127 82.7636C448.191 83.0196 448.223 83.3396 448.223 83.7236C448.223 84.0916 448.191 84.4116 448.127 84.6836H450.047ZM460.713 81.8036C460.713 82.1716 460.681 82.4916 460.617 82.7636H459.897C459.961 83.0196 459.993 83.3396 459.993 83.7236C459.993 84.0916 459.961 84.4116 459.897 84.6836H458.697C458.761 84.9396 458.793 85.2596 458.793 85.6436C458.793 86.0116 458.761 86.3316 458.697 86.6036H454.857C454.793 86.3316 454.761 86.0116 454.761 85.6436C454.761 85.2596 454.793 84.9396 454.857 84.6836H453.657C453.593 84.4116 453.561 84.0916 453.561 83.7236C453.561 83.3396 453.593 83.0196 453.657 82.7636H452.937C452.873 82.4916 452.841 82.1716 452.841 81.8036C452.841 81.4196 452.873 81.0996 452.937 80.8436H453.657C453.593 80.5716 453.561 80.2516 453.561 79.8836C453.561 79.4996 453.593 79.1796 453.657 78.9236H454.857C454.793 78.6516 454.761 78.3316 454.761 77.9636C454.761 77.5796 454.793 77.2596 454.857 77.0036H458.697C458.761 77.2596 458.793 77.5796 458.793 77.9636C458.793 78.3316 458.761 78.6516 458.697 78.9236H459.897C459.961 79.1796 459.993 79.4996 459.993 79.8836C459.993 80.2516 459.961 80.5716 459.897 80.8436H460.617C460.681 81.0996 460.713 81.4196 460.713 81.8036ZM458.697 82.7636C458.633 82.4916 458.601 82.1716 458.601 81.8036C458.601 81.4196 458.633 81.0996 458.697 80.8436H457.977C457.913 80.5716 457.881 80.2516 457.881 79.8836C457.881 79.4996 457.913 79.1796 457.977 78.9236H455.577C455.641 79.1796 455.673 79.4996 455.673 79.8836C455.673 80.2516 455.641 80.5716 455.577 80.8436H454.857C454.921 81.0996 454.953 81.4196 454.953 81.8036C454.953 82.1716 454.921 82.4916 454.857 82.7636H455.577C455.641 83.0196 455.673 83.3396 455.673 83.7236C455.673 84.0916 455.641 84.4116 455.577 84.6836H457.977C457.913 84.4116 457.881 84.0916 457.881 83.7236C457.881 83.3396 457.913 83.0196 457.977 82.7636H458.697ZM470.226 84.6836C470.29 84.9396 470.322 85.2596 470.322 85.6436C470.322 86.0116 470.29 86.3316 470.226 86.6036H468.306C468.242 86.3316 468.21 86.0116 468.21 85.6436C468.21 85.2596 468.242 84.9396 468.306 84.6836H467.346C467.282 84.4116 467.25 84.0916 467.25 83.7236C467.25 83.3396 467.282 83.0196 467.346 82.7636H464.466C464.53 83.0196 464.562 83.3396 464.562 83.7236C464.562 84.0916 464.53 84.4116 464.466 84.6836H467.346C467.41 84.9396 467.442 85.2596 467.442 85.6436C467.442 86.0116 467.41 86.3316 467.346 86.6036H463.506C463.442 86.3316 463.41 86.0116 463.41 85.6436C463.41 85.2596 463.442 84.9396 463.506 84.6836H462.546C462.482 84.4116 462.45 84.0916 462.45 83.7236C462.45 83.3396 462.482 83.0196 462.546 82.7636H463.506C463.442 82.4916 463.41 82.1716 463.41 81.8036C463.41 81.4196 463.442 81.0996 463.506 80.8436H467.346C467.282 80.5716 467.25 80.2516 467.25 79.8836C467.25 79.4996 467.282 79.1796 467.346 78.9236H463.986C463.922 78.6516 463.89 78.3316 463.89 77.9636C463.89 77.5796 463.922 77.2596 463.986 77.0036H468.306C468.37 77.2596 468.402 77.5796 468.402 77.9636C468.402 78.3316 468.37 78.6516 468.306 78.9236H469.266C469.33 79.1796 469.362 79.4996 469.362 79.8836C469.362 80.2516 469.33 80.5716 469.266 80.8436C469.33 81.0996 469.362 81.4196 469.362 81.8036C469.362 82.1716 469.33 82.4916 469.266 82.7636C469.33 83.0196 469.362 83.3396 469.362 83.7236C469.362 84.0916 469.33 84.4116 469.266 84.6836H470.226ZM479.835 75.0836C479.899 75.3396 479.931 75.6596 479.931 76.0436C479.931 76.4116 479.899 76.7316 479.835 77.0036C479.899 77.2596 479.931 77.5796 479.931 77.9636C479.931 78.3316 479.899 78.6516 479.835 78.9236C479.899 79.1796 479.931 79.4996 479.931 79.8836C479.931 80.2516 479.899 80.5716 479.835 80.8436C479.899 81.0996 479.931 81.4196 479.931 81.8036C479.931 82.1716 479.899 82.4916 479.835 82.7636C479.899 83.0196 479.931 83.3396 479.931 83.7236C479.931 84.0916 479.899 84.4116 479.835 84.6836C479.899 84.9396 479.931 85.2596 479.931 85.6436C479.931 86.0116 479.899 86.3316 479.835 86.6036H477.915C477.851 86.3316 477.819 86.0116 477.819 85.6436C477.819 85.2596 477.851 84.9396 477.915 84.6836H477.195C477.131 84.4116 477.099 84.0916 477.099 83.7236C477.099 83.3396 477.131 83.0196 477.195 82.7636H477.915C477.851 82.4916 477.819 82.1716 477.819 81.8036C477.819 81.4196 477.851 81.0996 477.915 80.8436H477.195C477.131 80.5716 477.099 80.2516 477.099 79.8836C477.099 79.4996 477.131 79.1796 477.195 78.9236H477.915C477.851 78.6516 477.819 78.3316 477.819 77.9636C477.819 77.5796 477.851 77.2596 477.915 77.0036C477.851 76.7316 477.819 76.4116 477.819 76.0436C477.819 75.6596 477.851 75.3396 477.915 75.0836C477.851 74.8116 477.819 74.4916 477.819 74.1236C477.819 73.7396 477.851 73.4196 477.915 73.1636H479.835C479.899 73.4196 479.931 73.7396 479.931 74.1236C479.931 74.4916 479.899 74.8116 479.835 75.0836ZM476.811 77.9636C476.811 78.3316 476.779 78.6516 476.715 78.9236H474.315C474.379 79.1796 474.411 79.4996 474.411 79.8836C474.411 80.2516 474.379 80.5716 474.315 80.8436H473.595C473.659 81.0996 473.691 81.4196 473.691 81.8036C473.691 82.1716 473.659 82.4916 473.595 82.7636H474.315C474.379 83.0196 474.411 83.3396 474.411 83.7236C474.411 84.0916 474.379 84.4116 474.315 84.6836H476.715C476.779 84.9396 476.811 85.2596 476.811 85.6436C476.811 86.0116 476.779 86.3316 476.715 86.6036H474.075C474.011 86.3316 473.979 86.0116 473.979 85.6436C473.979 85.2596 474.011 84.9396 474.075 84.6836H472.875C472.811 84.4116 472.779 84.0916 472.779 83.7236C472.779 83.3396 472.811 83.0196 472.875 82.7636H472.155C472.091 82.4916 472.059 82.1716 472.059 81.8036C472.059 81.4196 472.091 81.0996 472.155 80.8436H472.875C472.811 80.5716 472.779 80.2516 472.779 79.8836C472.779 79.4996 472.811 79.1796 472.875 78.9236H474.075C474.011 78.6516 473.979 78.3316 473.979 77.9636C473.979 77.5796 474.011 77.2596 474.075 77.0036H476.715C476.779 77.2596 476.811 77.5796 476.811 77.9636ZM499.054 84.6836C499.118 84.9396 499.15 85.2596 499.15 85.6436C499.15 86.0116 499.118 86.3316 499.054 86.6036H497.134C497.07 86.3316 497.038 86.0116 497.038 85.6436C497.038 85.2596 497.07 84.9396 497.134 84.6836H496.414C496.35 84.4116 496.318 84.0916 496.318 83.7236C496.318 83.3396 496.35 83.0196 496.414 82.7636H495.694C495.63 82.4916 495.598 82.1716 495.598 81.8036C495.598 81.4196 495.63 81.0996 495.694 80.8436H493.294C493.358 81.0996 493.39 81.4196 493.39 81.8036C493.39 82.1716 493.358 82.4916 493.294 82.7636C493.358 83.0196 493.39 83.3396 493.39 83.7236C493.39 84.0916 493.358 84.4116 493.294 84.6836C493.358 84.9396 493.39 85.2596 493.39 85.6436C493.39 86.0116 493.358 86.3316 493.294 86.6036H491.374C491.31 86.3316 491.278 86.0116 491.278 85.6436C491.278 85.2596 491.31 84.9396 491.374 84.6836C491.31 84.4116 491.278 84.0916 491.278 83.7236C491.278 83.3396 491.31 83.0196 491.374 82.7636C491.31 82.4916 491.278 82.1716 491.278 81.8036C491.278 81.4196 491.31 81.0996 491.374 80.8436C491.31 80.5716 491.278 80.2516 491.278 79.8836C491.278 79.4996 491.31 79.1796 491.374 78.9236C491.31 78.6516 491.278 78.3316 491.278 77.9636C491.278 77.5796 491.31 77.2596 491.374 77.0036C491.31 76.7316 491.278 76.4116 491.278 76.0436C491.278 75.6596 491.31 75.3396 491.374 75.0836C491.31 74.8116 491.278 74.4916 491.278 74.1236C491.278 73.7396 491.31 73.4196 491.374 73.1636H498.094C498.158 73.4196 498.19 73.7396 498.19 74.1236C498.19 74.4916 498.158 74.8116 498.094 75.0836H499.054C499.118 75.3396 499.15 75.6596 499.15 76.0436C499.15 76.4116 499.118 76.7316 499.054 77.0036H498.574C498.638 77.2596 498.67 77.5796 498.67 77.9636C498.67 78.3316 498.638 78.6516 498.574 78.9236H497.134C497.198 79.1796 497.23 79.4996 497.23 79.8836C497.23 80.2516 497.198 80.5716 497.134 80.8436H497.614C497.678 81.0996 497.71 81.4196 497.71 81.8036C497.71 82.1716 497.678 82.4916 497.614 82.7636H498.334C498.398 83.0196 498.43 83.3396 498.43 83.7236C498.43 84.0916 498.398 84.4116 498.334 84.6836H499.054ZM496.654 78.9236C496.59 78.6516 496.558 78.3316 496.558 77.9636C496.558 77.5796 496.59 77.2596 496.654 77.0036C496.59 76.7316 496.558 76.4116 496.558 76.0436C496.558 75.6596 496.59 75.3396 496.654 75.0836H493.294C493.358 75.3396 493.39 75.6596 493.39 76.0436C493.39 76.4116 493.358 76.7316 493.294 77.0036C493.358 77.2596 493.39 77.5796 493.39 77.9636C493.39 78.3316 493.358 78.6516 493.294 78.9236H496.654ZM508.759 79.8836C508.759 80.2516 508.727 80.5716 508.663 80.8436C508.727 81.0996 508.759 81.4196 508.759 81.8036C508.759 82.1716 508.727 82.4916 508.663 82.7636H503.623C503.687 83.0196 503.719 83.3396 503.719 83.7236C503.719 84.0916 503.687 84.4116 503.623 84.6836H507.703C507.767 84.9396 507.799 85.2596 507.799 85.6436C507.799 86.0116 507.767 86.3316 507.703 86.6036H502.903C502.839 86.3316 502.807 86.0116 502.807 85.6436C502.807 85.2596 502.839 84.9396 502.903 84.6836H501.703C501.639 84.4116 501.607 84.0916 501.607 83.7236C501.607 83.3396 501.639 83.0196 501.703 82.7636H500.983C500.919 82.4916 500.887 82.1716 500.887 81.8036C500.887 81.4196 500.919 81.0996 500.983 80.8436H501.703C501.639 80.5716 501.607 80.2516 501.607 79.8836C501.607 79.4996 501.639 79.1796 501.703 78.9236H502.903C502.839 78.6516 502.807 78.3316 502.807 77.9636C502.807 77.5796 502.839 77.2596 502.903 77.0036H507.703C507.767 77.2596 507.799 77.5796 507.799 77.9636C507.799 78.3316 507.767 78.6516 507.703 78.9236H508.663C508.727 79.1796 508.759 79.4996 508.759 79.8836ZM506.743 80.8436C506.679 80.5716 506.647 80.2516 506.647 79.8836C506.647 79.4996 506.679 79.1796 506.743 78.9236H503.623C503.687 79.1796 503.719 79.4996 503.719 79.8836C503.719 80.2516 503.687 80.5716 503.623 80.8436H506.743ZM517.889 83.7236C517.889 84.0916 517.857 84.4116 517.793 84.6836H516.833C516.897 84.9396 516.929 85.2596 516.929 85.6436C516.929 86.0116 516.897 86.3316 516.833 86.6036H511.553C511.489 86.3316 511.457 86.0116 511.457 85.6436C511.457 85.2596 511.489 84.9396 511.553 84.6836H515.873C515.809 84.4116 515.777 84.0916 515.777 83.7236C515.777 83.3396 515.809 83.0196 515.873 82.7636H512.033C511.969 82.4916 511.937 82.1716 511.937 81.8036C511.937 81.4196 511.969 81.0996 512.033 80.8436H511.073C511.009 80.5716 510.977 80.2516 510.977 79.8836C510.977 79.4996 511.009 79.1796 511.073 78.9236H512.033C511.969 78.6516 511.937 78.3316 511.937 77.9636C511.937 77.5796 511.969 77.2596 512.033 77.0036H517.313C517.377 77.2596 517.409 77.5796 517.409 77.9636C517.409 78.3316 517.377 78.6516 517.313 78.9236H512.993C513.057 79.1796 513.089 79.4996 513.089 79.8836C513.089 80.2516 513.057 80.5716 512.993 80.8436H516.833C516.897 81.0996 516.929 81.4196 516.929 81.8036C516.929 82.1716 516.897 82.4916 516.833 82.7636H517.793C517.857 83.0196 517.889 83.3396 517.889 83.7236ZM522.938 83.7236C522.938 84.0916 522.906 84.4116 522.842 84.6836H525.242C525.306 84.9396 525.338 85.2596 525.338 85.6436C525.338 86.0116 525.306 86.3316 525.242 86.6036H521.402C521.338 86.3316 521.306 86.0116 521.306 85.6436C521.306 85.2596 521.338 84.9396 521.402 84.6836H520.202C520.138 84.4116 520.106 84.0916 520.106 83.7236C520.106 83.3396 520.138 83.0196 520.202 82.7636C520.138 82.4916 520.106 82.1716 520.106 81.8036C520.106 81.4196 520.138 81.0996 520.202 80.8436C520.138 80.5716 520.106 80.2516 520.106 79.8836C520.106 79.4996 520.138 79.1796 520.202 78.9236C520.138 78.6516 520.106 78.3316 520.106 77.9636C520.106 77.5796 520.138 77.2596 520.202 77.0036H522.122C522.186 77.2596 522.218 77.5796 522.218 77.9636C522.218 78.3316 522.186 78.6516 522.122 78.9236C522.186 79.1796 522.218 79.4996 522.218 79.8836C522.218 80.2516 522.186 80.5716 522.122 80.8436C522.186 81.0996 522.218 81.4196 522.218 81.8036C522.218 82.1716 522.186 82.4916 522.122 82.7636H522.842C522.906 83.0196 522.938 83.3396 522.938 83.7236ZM527.882 78.9236C527.946 79.1796 527.978 79.4996 527.978 79.8836C527.978 80.2516 527.946 80.5716 527.882 80.8436C527.946 81.0996 527.978 81.4196 527.978 81.8036C527.978 82.1716 527.946 82.4916 527.882 82.7636C527.946 83.0196 527.978 83.3396 527.978 83.7236C527.978 84.0916 527.946 84.4116 527.882 84.6836C527.946 84.9396 527.978 85.2596 527.978 85.6436C527.978 86.0116 527.946 86.3316 527.882 86.6036H525.962C525.898 86.3316 525.866 86.0116 525.866 85.6436C525.866 85.2596 525.898 84.9396 525.962 84.6836H525.242C525.178 84.4116 525.146 84.0916 525.146 83.7236C525.146 83.3396 525.178 83.0196 525.242 82.7636H525.962C525.898 82.4916 525.866 82.1716 525.866 81.8036C525.866 81.4196 525.898 81.0996 525.962 80.8436C525.898 80.5716 525.866 80.2516 525.866 79.8836C525.866 79.4996 525.898 79.1796 525.962 78.9236C525.898 78.6516 525.866 78.3316 525.866 77.9636C525.866 77.5796 525.898 77.2596 525.962 77.0036H527.882C527.946 77.2596 527.978 77.5796 527.978 77.9636C527.978 78.3316 527.946 78.6516 527.882 78.9236ZM531.108 77.9636C531.108 78.3316 531.076 78.6516 531.012 78.9236H531.732C531.796 79.1796 531.828 79.4996 531.828 79.8836C531.828 80.2516 531.796 80.5716 531.732 80.8436C531.796 81.0996 531.828 81.4196 531.828 81.8036C531.828 82.1716 531.796 82.4916 531.732 82.7636C531.796 83.0196 531.828 83.3396 531.828 83.7236C531.828 84.0916 531.796 84.4116 531.732 84.6836C531.796 84.9396 531.828 85.2596 531.828 85.6436C531.828 86.0116 531.796 86.3316 531.732 86.6036H529.812C529.748 86.3316 529.716 86.0116 529.716 85.6436C529.716 85.2596 529.748 84.9396 529.812 84.6836C529.748 84.4116 529.716 84.0916 529.716 83.7236C529.716 83.3396 529.748 83.0196 529.812 82.7636C529.748 82.4916 529.716 82.1716 529.716 81.8036C529.716 81.4196 529.748 81.0996 529.812 80.8436C529.748 80.5716 529.716 80.2516 529.716 79.8836C529.716 79.4996 529.748 79.1796 529.812 78.9236C529.748 78.6516 529.716 78.3316 529.716 77.9636C529.716 77.5796 529.748 77.2596 529.812 77.0036H531.012C531.076 77.2596 531.108 77.5796 531.108 77.9636ZM533.748 77.9636C533.748 78.3316 533.716 78.6516 533.652 78.9236H534.372C534.436 79.1796 534.468 79.4996 534.468 79.8836C534.468 80.2516 534.436 80.5716 534.372 80.8436C534.436 81.0996 534.468 81.4196 534.468 81.8036C534.468 82.1716 534.436 82.4916 534.372 82.7636C534.436 83.0196 534.468 83.3396 534.468 83.7236C534.468 84.0916 534.436 84.4116 534.372 84.6836C534.436 84.9396 534.468 85.2596 534.468 85.6436C534.468 86.0116 534.436 86.3316 534.372 86.6036H532.932C532.868 86.3316 532.836 86.0116 532.836 85.6436C532.836 85.2596 532.868 84.9396 532.932 84.6836C532.868 84.4116 532.836 84.0916 532.836 83.7236C532.836 83.3396 532.868 83.0196 532.932 82.7636C532.868 82.4916 532.836 82.1716 532.836 81.8036C532.836 81.4196 532.868 81.0996 532.932 80.8436C532.868 80.5716 532.836 80.2516 532.836 79.8836C532.836 79.4996 532.868 79.1796 532.932 78.9236H531.732C531.668 78.6516 531.636 78.3316 531.636 77.9636C531.636 77.5796 531.668 77.2596 531.732 77.0036H533.652C533.716 77.2596 533.748 77.5796 533.748 77.9636ZM537.492 80.8436C537.556 81.0996 537.588 81.4196 537.588 81.8036C537.588 82.1716 537.556 82.4916 537.492 82.7636C537.556 83.0196 537.588 83.3396 537.588 83.7236C537.588 84.0916 537.556 84.4116 537.492 84.6836C537.556 84.9396 537.588 85.2596 537.588 85.6436C537.588 86.0116 537.556 86.3316 537.492 86.6036H535.572C535.508 86.3316 535.476 86.0116 535.476 85.6436C535.476 85.2596 535.508 84.9396 535.572 84.6836C535.508 84.4116 535.476 84.0916 535.476 83.7236C535.476 83.3396 535.508 83.0196 535.572 82.7636C535.508 82.4916 535.476 82.1716 535.476 81.8036C535.476 81.4196 535.508 81.0996 535.572 80.8436C535.508 80.5716 535.476 80.2516 535.476 79.8836C535.476 79.4996 535.508 79.1796 535.572 78.9236H534.372C534.308 78.6516 534.276 78.3316 534.276 77.9636C534.276 77.5796 534.308 77.2596 534.372 77.0036H536.532C536.596 77.2596 536.628 77.5796 536.628 77.9636C536.628 78.3316 536.596 78.6516 536.532 78.9236H537.492C537.556 79.1796 537.588 79.4996 537.588 79.8836C537.588 80.2516 537.556 80.5716 537.492 80.8436ZM547.197 79.8836C547.197 80.2516 547.165 80.5716 547.101 80.8436C547.165 81.0996 547.197 81.4196 547.197 81.8036C547.197 82.1716 547.165 82.4916 547.101 82.7636H542.061C542.125 83.0196 542.157 83.3396 542.157 83.7236C542.157 84.0916 542.125 84.4116 542.061 84.6836H546.141C546.205 84.9396 546.237 85.2596 546.237 85.6436C546.237 86.0116 546.205 86.3316 546.141 86.6036H541.341C541.277 86.3316 541.245 86.0116 541.245 85.6436C541.245 85.2596 541.277 84.9396 541.341 84.6836H540.141C540.077 84.4116 540.045 84.0916 540.045 83.7236C540.045 83.3396 540.077 83.0196 540.141 82.7636H539.421C539.357 82.4916 539.325 82.1716 539.325 81.8036C539.325 81.4196 539.357 81.0996 539.421 80.8436H540.141C540.077 80.5716 540.045 80.2516 540.045 79.8836C540.045 79.4996 540.077 79.1796 540.141 78.9236H541.341C541.277 78.6516 541.245 78.3316 541.245 77.9636C541.245 77.5796 541.277 77.2596 541.341 77.0036H546.141C546.205 77.2596 546.237 77.5796 546.237 77.9636C546.237 78.3316 546.205 78.6516 546.141 78.9236H547.101C547.165 79.1796 547.197 79.4996 547.197 79.8836ZM545.181 80.8436C545.117 80.5716 545.085 80.2516 545.085 79.8836C545.085 79.4996 545.117 79.1796 545.181 78.9236H542.061C542.125 79.1796 542.157 79.4996 542.157 79.8836C542.157 80.2516 542.125 80.5716 542.061 80.8436H545.181Z" fill="#34495E"/>
<defs>
<filter id="filter0_f" x="3.27277" y="0" width="952.667" height="162" filterUnits="userSpaceOnUse" color-interpolation-filters="sRGB">
<feFlood flood-opacity="0" result="BackgroundImageFix"/>
<feBlend mode="normal" in="SourceGraphic" in2="BackgroundImageFix" result="shape"/>
<feGaussianBlur stdDeviation="20" result="effect1_foregroundBlur"/>
</filter>
<linearGradient id="paint0_linear" x1="40.0762" y1="44.6415" x2="928.647" y2="127.152" gradientUnits="userSpaceOnUse">
<stop stop-color="#A84C4C"/>
<stop offset="0.0001" stop-color="#29C6F8"/>
<stop offset="0.411458" stop-color="#B432E2"/>
<stop offset="1" stop-color="#E95110"/>
</linearGradient>
</defs>
</svg>
